<svg width="335" height="335" viewBox="0 0 335 335" fill="none" xmlns="http://www.w3.org/2000/svg">
<path d="M304.369 140.163H293.125V139.583H167.5V195.417H246.386C234.877 227.919 203.952 251.25 167.5 251.25C121.249 251.25 83.7501 213.751 83.7501 167.5C83.7501 121.249 121.249 83.75 167.5 83.75C188.849 83.75 208.272 91.8039 223.061 104.96L262.542 65.4785C237.613 42.2449 204.266 27.9166 167.5 27.9166C90.4152 27.9166 27.9167 90.4151 27.9167 167.5C27.9167 244.585 90.4152 307.083 167.5 307.083C244.585 307.083 307.083 244.585 307.083 167.5C307.083 158.141 306.12 149.005 304.369 140.163Z" fill="#FFC107"/>
<path d="M44.0107 102.531L89.8708 136.164C102.28 105.441 132.332 83.75 167.5 83.75C188.849 83.75 208.272 91.8039 223.061 104.96L262.542 65.4785C237.613 42.2449 204.266 27.9166 167.5 27.9166C113.886 27.9166 67.3909 58.1853 44.0107 102.531Z" fill="#FF3D00"/>
<path d="M167.5 307.083C203.554 307.083 236.314 293.286 261.084 270.848L217.882 234.291C203.398 245.307 185.698 251.264 167.5 251.25C131.194 251.25 100.367 228.1 88.754 195.794L43.2358 230.864C66.3369 276.068 113.251 307.083 167.5 307.083Z" fill="#4CAF50"/>
<path d="M304.368 140.163H293.125V139.583H167.5V195.417H246.386C240.88 210.885 230.964 224.402 217.862 234.298L217.883 234.284L261.084 270.841C258.027 273.618 307.083 237.292 307.083 167.5C307.083 158.141 306.12 149.005 304.368 140.163Z" fill="#1976D2"/>
</svg>
