<svg width="444" height="98" viewBox="0 0 444 98" fill="none" xmlns="http://www.w3.org/2000/svg">
<path d="M69.304 17.856C75.96 17.856 81.24 19.872 85.144 23.904C89.112 27.936 91.096 33.536 91.096 40.704V72H74.776V42.912C74.776 39.456 73.848 36.8 71.992 34.944C70.2 33.024 67.704 32.064 64.504 32.064C61.304 32.064 58.776 33.024 56.92 34.944C55.128 36.8 54.232 39.456 54.232 42.912V72H37.912V42.912C37.912 39.456 36.984 36.8 35.128 34.944C33.336 33.024 30.84 32.064 27.64 32.064C24.44 32.064 21.912 33.024 20.056 34.944C18.264 36.8 17.368 39.456 17.368 42.912V72H0.952V18.432H17.368V25.152C19.032 22.912 21.208 21.152 23.896 19.872C26.584 18.528 29.624 17.856 33.016 17.856C37.048 17.856 40.632 18.72 43.768 20.448C46.968 22.176 49.464 24.64 51.256 27.84C53.112 24.896 55.64 22.496 58.84 20.64C62.04 18.784 65.528 17.856 69.304 17.856ZM157.297 18.432L123.697 97.44H106.033L118.321 70.176L96.529 18.432H114.865L127.249 51.936L139.537 18.432H157.297ZM187.617 72.672C182.689 72.672 178.273 71.872 174.369 70.272C170.465 68.672 167.329 66.304 164.961 63.168C162.657 60.032 161.441 56.256 161.313 51.84H178.785C179.041 54.336 179.905 56.256 181.377 57.6C182.849 58.88 184.769 59.52 187.137 59.52C189.569 59.52 191.489 58.976 192.897 57.888C194.305 56.736 195.009 55.168 195.009 53.184C195.009 51.52 194.433 50.144 193.281 49.056C192.193 47.968 190.817 47.072 189.153 46.368C187.553 45.664 185.249 44.864 182.241 43.968C177.889 42.624 174.337 41.28 171.585 39.936C168.833 38.592 166.465 36.608 164.481 33.984C162.497 31.36 161.505 27.936 161.505 23.712C161.505 17.44 163.777 12.544 168.321 9.024C172.865 5.44 178.785 3.648 186.081 3.648C193.505 3.648 199.489 5.44 204.033 9.024C208.577 12.544 211.009 17.472 211.329 23.808H193.569C193.441 21.632 192.641 19.936 191.169 18.72C189.697 17.44 187.809 16.8 185.505 16.8C183.521 16.8 181.921 17.344 180.705 18.432C179.489 19.456 178.881 20.96 178.881 22.944C178.881 25.12 179.905 26.816 181.953 28.032C184.001 29.248 187.201 30.56 191.553 31.968C195.905 33.44 199.425 34.848 202.113 36.192C204.865 37.536 207.233 39.488 209.217 42.048C211.201 44.608 212.193 47.904 212.193 51.936C212.193 55.776 211.201 59.264 209.217 62.4C207.297 65.536 204.481 68.032 200.769 69.888C197.057 71.744 192.673 72.672 187.617 72.672ZM255.224 17.856C261.368 17.856 266.296 19.904 270.008 24C273.72 28.032 275.576 33.6 275.576 40.704V72H259.256V42.912C259.256 39.328 258.328 36.544 256.472 34.56C254.616 32.576 252.12 31.584 248.984 31.584C245.848 31.584 243.352 32.576 241.496 34.56C239.64 36.544 238.712 39.328 238.712 42.912V72H222.296V0.959999H238.712V25.632C240.376 23.264 242.648 21.376 245.528 19.968C248.408 18.56 251.64 17.856 255.224 17.856ZM283.719 45.12C283.719 39.616 284.743 34.784 286.791 30.624C288.903 26.464 291.751 23.264 295.335 21.024C298.919 18.784 302.919 17.664 307.335 17.664C311.111 17.664 314.407 18.432 317.223 19.968C320.103 21.504 322.311 23.52 323.847 26.016V18.432H340.263V72H323.847V64.416C322.247 66.912 320.007 68.928 317.127 70.464C314.311 72 311.015 72.768 307.239 72.768C302.887 72.768 298.919 71.648 295.335 69.408C291.751 67.104 288.903 63.872 286.791 59.712C284.743 55.488 283.719 50.624 283.719 45.12ZM323.847 45.216C323.847 41.12 322.695 37.888 320.391 35.52C318.151 33.152 315.399 31.968 312.135 31.968C308.871 31.968 306.087 33.152 303.783 35.52C301.543 37.824 300.423 41.024 300.423 45.12C300.423 49.216 301.543 52.48 303.783 54.912C306.087 57.28 308.871 58.464 312.135 58.464C315.399 58.464 318.151 57.28 320.391 54.912C322.695 52.544 323.847 49.312 323.847 45.216ZM368.556 27.36C370.476 24.416 372.876 22.112 375.756 20.448C378.636 18.72 381.836 17.856 385.356 17.856V35.232H380.844C376.748 35.232 373.676 36.128 371.628 37.92C369.58 39.648 368.556 42.72 368.556 47.136V72H352.14V18.432H368.556V27.36ZM443.698 44.352C443.698 45.888 443.602 47.488 443.41 49.152H406.258C406.514 52.48 407.57 55.04 409.426 56.832C411.346 58.56 413.682 59.424 416.434 59.424C420.53 59.424 423.378 57.696 424.978 54.24H442.45C441.554 57.76 439.922 60.928 437.554 63.744C435.25 66.56 432.338 68.768 428.818 70.368C425.298 71.968 421.362 72.768 417.01 72.768C411.762 72.768 407.09 71.648 402.994 69.408C398.898 67.168 395.698 63.968 393.394 59.808C391.09 55.648 389.938 50.784 389.938 45.216C389.938 39.648 391.058 34.784 393.298 30.624C395.602 26.464 398.802 23.264 402.898 21.024C406.994 18.784 411.698 17.664 417.01 17.664C422.194 17.664 426.802 18.752 430.834 20.928C434.866 23.104 438.002 26.208 440.242 30.24C442.546 34.272 443.698 38.976 443.698 44.352ZM426.898 40.032C426.898 37.216 425.938 34.976 424.018 33.312C422.098 31.648 419.698 30.816 416.818 30.816C414.066 30.816 411.73 31.616 409.81 33.216C407.954 34.816 406.802 37.088 406.354 40.032H426.898Z" fill="#ECCA51"/>
</svg>
